<svg xmlns="http://www.w3.org/2000/svg" width="32" height="32" viewBox="0 0 32 32" fill="none">
  <rect width="32" height="32" rx="8" fill="#0EA5E9"/>
  <path d="M8 10C8 8.89543 8.89543 8 10 8H22C23.1046 8 24 8.89543 24 10V22C24 23.1046 23.1046 24 22 24H10C8.89543 24 8 23.1046 8 22V10Z" fill="white"/>
  <path d="M12 16C12 14.8954 12.8954 14 14 14H18C19.1046 14 20 14.8954 20 16V20C20 21.1046 19.1046 22 18 22H14C12.8954 22 12 21.1046 12 20V16Z" fill="#0EA5E9"/>
  <path d="M16 12C16 10.8954 16.8954 10 18 10H22C23.1046 10 24 10.8954 24 12V16C24 17.1046 23.1046 18 22 18H18C16.8954 18 16 17.1046 16 16V12Z" fill="#0EA5E9"/>
</svg>